<?xml version="1.0" encoding="UTF-8" standalone="no"?>
<svg
   xmlns:dc="http://purl.org/dc/elements/1.1/"
   xmlns:cc="http://creativecommons.org/ns#"
   xmlns:rdf="http://www.w3.org/1999/02/22-rdf-syntax-ns#"
   xmlns:svg="http://www.w3.org/2000/svg"
   xmlns="http://www.w3.org/2000/svg"
   xmlns:sodipodi="http://sodipodi.sourceforge.net/DTD/sodipodi-0.dtd"
   xmlns:inkscape="http://www.inkscape.org/namespaces/inkscape"
   id="Layer_3"
   enable-background="new 0 0 64 64"
   height="24"
   viewBox="0 0 3 3"
   width="24"
   version="1.1"
   sodipodi:docname="bulldozer.svg"
   inkscape:version="0.92.3 (2405546, 2018-03-11)">
  <metadata
     id="metadata185">
    <rdf:RDF>
      <cc:Work
         rdf:about="">
        <dc:format>image/svg+xml</dc:format>
        <dc:type
           rdf:resource="http://purl.org/dc/dcmitype/StillImage" />
        <dc:title></dc:title>
      </cc:Work>
    </rdf:RDF>
  </metadata>
  <defs
     id="defs183" />
  <sodipodi:namedview
     pagecolor="#ffffff"
     bordercolor="#666666"
     borderopacity="1"
     objecttolerance="10"
     gridtolerance="10"
     guidetolerance="10"
     inkscape:pageopacity="0"
     inkscape:pageshadow="2"
     inkscape:window-width="1299"
     inkscape:window-height="713"
     id="namedview181"
     showgrid="false"
     inkscape:zoom="3.6875"
     inkscape:cx="35.714378"
     inkscape:cy="45.252813"
     inkscape:window-x="67"
     inkscape:window-y="27"
     inkscape:window-maximized="1"
     inkscape:current-layer="Layer_3" />
  <g
     id="g178"
     transform="matrix(0.04646041,0,0,0.04646041,0.01327128,0.01329011)">
    <path
       d="M 22,50 12,47 v -4 l 10,3 z"
       id="path2"
       inkscape:connector-curvature="0"
       style="fill:#7f786b" />
    <path
       d="M 11.989,41 16,40 v -4 l -4.011,1 z"
       id="path4"
       inkscape:connector-curvature="0"
       style="fill:#7f786b" />
    <path
       d="M 41.694,31.999 C 41.894,31.559 42,31.078 42,30.586 V 27 h 18 v 3.586 c 0,0.906 0.36,1.774 1,2.414 0.64,0.64 1,1.509 1,2.414 V 44 c 0,1.105 -0.895,2 -2,2 H 18 c -1.105,0 -2,-0.895 -2,-2 V 34 c 0,-1.105 0.895,-2 2,-2 z"
       id="path6"
       inkscape:connector-curvature="0"
       style="fill:#f2c351" />
    <path
       d="m 22,46 h 34 v 5 H 22 Z"
       id="path8"
       inkscape:connector-curvature="0"
       style="fill:#9e968d" />
    <path
       d="M 54.001,62 H 24 c -3.314,0 -6,-2.686 -6,-6 0,-3.314 2.686,-6 6,-6 h 30.001 c 3.314,0 6,2.686 6,6 0,3.314 -2.686,6 -6,6 z"
       id="path10"
       inkscape:connector-curvature="0"
       style="fill:#534f44" />
    <g
       id="g14">
      <path
         d="m 36,50 h 2 v 3 h -2 z"
         id="path12"
         inkscape:connector-curvature="0"
         style="fill:#7f786b" />
    </g>
    <g
       id="g18">
      <path
         d="m 32,50 h 2 v 3 h -2 z"
         id="path16"
         inkscape:connector-curvature="0"
         style="fill:#7f786b" />
    </g>
    <g
       id="g22">
      <path
         d="m 28,50 h 2 v 3 h -2 z"
         id="path20"
         inkscape:connector-curvature="0"
         style="fill:#7f786b" />
    </g>
    <g
       id="g26">
      <path
         d="m 48,50 h 2 v 3 h -2 z"
         id="path24"
         inkscape:connector-curvature="0"
         style="fill:#7f786b" />
    </g>
    <g
       id="g30">
      <path
         d="m 44,50 h 2 v 3 h -2 z"
         id="path28"
         inkscape:connector-curvature="0"
         style="fill:#7f786b" />
    </g>
    <g
       id="g34">
      <path
         d="m 40,50 h 2 v 3 h -2 z"
         id="path32"
         inkscape:connector-curvature="0"
         style="fill:#7f786b" />
    </g>
    <g
       id="g38">
      <path
         d="m 24,50 h 2 v 3 h -2 z"
         id="path36"
         inkscape:connector-curvature="0"
         style="fill:#7f786b" />
    </g>
    <g
       id="g42">
      <path
         d="m 36,59 h 2 v 3 h -2 z"
         id="path40"
         inkscape:connector-curvature="0"
         style="fill:#7f786b" />
    </g>
    <g
       id="g46">
      <path
         d="m 32,59 h 2 v 3 h -2 z"
         id="path44"
         inkscape:connector-curvature="0"
         style="fill:#7f786b" />
    </g>
    <g
       id="g50">
      <path
         d="m 28,59 h 2 v 3 h -2 z"
         id="path48"
         inkscape:connector-curvature="0"
         style="fill:#7f786b" />
    </g>
    <g
       id="g54">
      <path
         d="m 48,59 h 2 v 3 h -2 z"
         id="path52"
         inkscape:connector-curvature="0"
         style="fill:#7f786b" />
    </g>
    <g
       id="g58">
      <path
         d="m 44,59 h 2 v 3 h -2 z"
         id="path56"
         inkscape:connector-curvature="0"
         style="fill:#7f786b" />
    </g>
    <g
       id="g62">
      <path
         d="m 40,59 h 2 v 3 h -2 z"
         id="path60"
         inkscape:connector-curvature="0"
         style="fill:#7f786b" />
    </g>
    <g
       id="g66">
      <path
         d="m 24,59 h 2 v 3 h -2 z"
         id="path64"
         inkscape:connector-curvature="0"
         style="fill:#7f786b" />
    </g>
    <g
       id="g80"
       style="fill:#7f786b">
      <path
         d="m 58.888,59.473 -2.475,-2.475 -1.415,1.415 2.475,2.475 c 0.548,-0.39 1.026,-0.868 1.415,-1.415 z"
         id="path68"
         inkscape:connector-curvature="0" />
      <path
         d="m 56.646,56.999 h 3.265 c 0.055,-0.326 0.09,-0.658 0.09,-0.999 0,-0.342 -0.035,-0.674 -0.09,-1 h -3.264 v 1.999 z"
         id="path70"
         inkscape:connector-curvature="0" />
      <path
         d="m 57.473,51.112 -2.623,2.623 1.415,1.415 2.624,-2.624 C 58.498,51.98 58.02,51.502 57.473,51.112 Z"
         id="path72"
         inkscape:connector-curvature="0" />
      <path
         d="m 19.112,59.472 c 0.389,0.547 0.867,1.025 1.414,1.415 l 2.566,-2.566 -1.415,-1.415 z"
         id="path74"
         inkscape:connector-curvature="0" />
      <path
         d="m 18,56 c 0,0.341 0.035,0.673 0.09,0.999 H 22 v -2 H 18.09 C 18.035,55.326 18,55.658 18,56 Z"
         id="path76"
         inkscape:connector-curvature="0" />
      <path
         d="m 19.113,52.527 2.565,2.565 1.415,-1.415 -2.565,-2.565 c -0.548,0.39 -1.026,0.868 -1.415,1.415 z"
         id="path78"
         inkscape:connector-curvature="0" />
    </g>
    <g
       id="g84">
      <path
         d="m 52,50 h 2 v 3 h -2 z"
         id="path82"
         inkscape:connector-curvature="0"
         style="fill:#7f786b" />
    </g>
    <g
       id="g88">
      <path
         d="m 52,59 h 2 v 3 h -2 z"
         id="path86"
         inkscape:connector-curvature="0"
         style="fill:#7f786b" />
    </g>
    <path
       d="M 54.001,59 H 24 c -1.657,0 -3,-1.343 -3,-3 0,-1.657 1.343,-3 3,-3 h 30.001 c 1.657,0 3,1.343 3,3 0,1.657 -1.343,3 -3,3 z"
       id="path90"
       inkscape:connector-curvature="0"
       style="fill:#ffffff" />
    <g
       id="g94">
      <path
         d="m 24,55 h 2 v 2 h -2 z"
         id="path92"
         inkscape:connector-curvature="0"
         style="fill:#7f786b" />
    </g>
    <g
       id="g98">
      <path
         d="m 28,55 h 6 v 2 h -6 z"
         id="path96"
         inkscape:connector-curvature="0"
         style="fill:#7f786b" />
    </g>
    <g
       id="g102">
      <path
         d="m 36,55 h 6 v 2 h -6 z"
         id="path100"
         inkscape:connector-curvature="0"
         style="fill:#7f786b" />
    </g>
    <g
       id="g106">
      <path
         d="m 44,55 h 6 v 2 h -6 z"
         id="path104"
         inkscape:connector-curvature="0"
         style="fill:#7f786b" />
    </g>
    <g
       id="g110">
      <path
         d="m 52,55 h 2 v 2 h -2 z"
         id="path108"
         inkscape:connector-curvature="0"
         style="fill:#7f786b" />
    </g>
    <g
       id="g114">
      <path
         d="m 19,35 h 2 v 8 h -2 z"
         id="path112"
         inkscape:connector-curvature="0"
         style="fill:#7f786b" />
    </g>
    <g
       id="g118">
      <path
         d="m 22,35 h 2 v 8 h -2 z"
         id="path116"
         inkscape:connector-curvature="0"
         style="fill:#7f786b" />
    </g>
    <g
       id="g122">
      <path
         d="m 25,35 h 2 v 8 h -2 z"
         id="path120"
         inkscape:connector-curvature="0"
         style="fill:#7f786b" />
    </g>
    <path
       d="m 20,32 v -4 h 8 v 4"
       id="path124"
       inkscape:connector-curvature="0"
       style="fill:#625d51" />
    <path
       d="m 22,28 v -4 h 4 v 4"
       id="path126"
       inkscape:connector-curvature="0"
       style="fill:#7f786b" />
    <path
       d="M 43,27 V 12 h 16 v 15"
       id="path128"
       inkscape:connector-curvature="0"
       style="fill:#f7d881" />
    <path
       d="M 59,12 H 43 c -1.105,0 -2,-0.895 -2,-2 0,-1.105 0.895,-2 2,-2 h 16 c 1.105,0 2,0.895 2,2 0,1.105 -0.895,2 -2,2 z"
       id="path130"
       inkscape:connector-curvature="0"
       style="fill:#625d51" />
    <path
       d="M 32,13 V 9.243 C 32,8.447 31.684,7.684 31.121,7.122 L 28,4 30,2 33.243,5.243 C 34.368,6.368 35,7.894 35,9.485 V 13"
       id="path132"
       inkscape:connector-curvature="0"
       style="fill:#d5cec2" />
    <path
       d="m 35.5,16 h -4 C 30.672,16 30,15.328 30,14.5 30,13.672 30.672,13 31.5,13 h 4 c 0.828,0 1.5,0.672 1.5,1.5 0,0.828 -0.672,1.5 -1.5,1.5 z"
       id="path134"
       inkscape:connector-curvature="0"
       style="fill:#625d51" />
    <path
       d="M 35,32 V 16 h -3 v 16"
       id="path136"
       inkscape:connector-curvature="0"
       style="fill:#d5cec2" />
    <path
       d="M 12,24 V 50 H 2 C 5.232,46.768 7.237,42.511 7.67,37.961 L 9,24 Z"
       id="path138"
       inkscape:connector-curvature="0"
       style="fill:#f2c351" />
    <path
       d="m 43,15 h 10 c 1.105,0 2,0.895 2,2 v 7 H 43"
       id="path140"
       inkscape:connector-curvature="0"
       style="fill:#c7e2fc" />
    <path
       d="m 51,30 h 6 v 3 h -6 z"
       id="path142"
       inkscape:connector-curvature="0"
       style="fill:#f7d881" />
    <path
       d="m 35,38 h 22 v 4 H 35 Z"
       id="path144"
       inkscape:connector-curvature="0"
       style="fill:#625d51" />
    <g
       id="g148">
      <path
         d="m 27,57.999 c -1.103,0 -2,-0.897 -2,-2 0,-1.103 0.897,-2 2,-2 1.103,0 2,0.897 2,2 0,1.103 -0.897,2 -2,2 z m 0,-2.001 V 56 Z"
         id="path146"
         inkscape:connector-curvature="0"
         style="fill:#625d51" />
    </g>
    <g
       id="g152">
      <path
         d="m 35,57.999 c -1.103,0 -2,-0.897 -2,-2 0,-1.103 0.897,-2 2,-2 1.103,0 2,0.897 2,2 0,1.103 -0.897,2 -2,2 z m 0,-2.001 V 56 Z"
         id="path150"
         inkscape:connector-curvature="0"
         style="fill:#625d51" />
    </g>
    <g
       id="g156">
      <path
         d="m 43,57.999 c -1.103,0 -2,-0.897 -2,-2 0,-1.103 0.897,-2 2,-2 1.103,0 2,0.897 2,2 0,1.103 -0.897,2 -2,2 z m 0,-2.001 V 56 Z"
         id="path154"
         inkscape:connector-curvature="0"
         style="fill:#625d51" />
    </g>
    <g
       id="g160">
      <path
         d="m 51,57.999 c -1.103,0 -2,-0.897 -2,-2 0,-1.103 0.897,-2 2,-2 1.103,0 2,0.897 2,2 0,1.103 -0.897,2 -2,2 z m 0,-2.001 V 56 Z"
         id="path158"
         inkscape:connector-curvature="0"
         style="fill:#625d51" />
    </g>
    <path
       d="m 52.732,17.134 c 0,-0.737 -0.1,-1.449 -0.269,-2.134 H 43 v 9 h 6.473 c 1.989,-1.626 3.259,-4.097 3.259,-6.866 z"
       id="path162"
       inkscape:connector-curvature="0"
       style="fill:#ebf7fe" />
    <g
       id="g176">
      <path
         d="m 52.722,56.999 h 1.277 v -2 h -1.278 c -0.347,-0.595 -0.985,-1 -1.721,-1 -0.737,0 -1.375,0.405 -1.722,1 h -4.557 c -0.347,-0.595 -0.985,-1 -1.721,-1 -0.737,0 -1.375,0.405 -1.722,1 h -4.557 c -0.347,-0.595 -0.985,-1 -1.721,-1 -0.737,0 -1.375,0.405 -1.722,1 h -4.557 c -0.347,-0.595 -0.985,-1 -1.721,-1 -0.737,0 -1.375,0.405 -1.722,1 H 24 v 2 h 1.279 c 0.347,0.595 0.985,1 1.722,1 0.737,0 1.375,-0.405 1.722,-1 h 4.556 c 0.347,0.595 0.985,1 1.722,1 0.737,0 1.375,-0.405 1.722,-1 h 4.556 c 0.347,0.595 0.985,1 1.722,1 0.737,0 1.375,-0.405 1.722,-1 h 4.556 c 0.347,0.595 0.985,1 1.722,1 0.736,0 1.374,-0.405 1.721,-1 z"
         id="path164"
         inkscape:connector-curvature="0" />
      <path
         d="m 19,35 h 2 v 8 h -2 z"
         id="path166"
         inkscape:connector-curvature="0" />
      <path
         d="m 22,35 h 2 v 8 h -2 z"
         id="path168"
         inkscape:connector-curvature="0" />
      <path
         d="m 25,35 h 2 v 8 h -2 z"
         id="path170"
         inkscape:connector-curvature="0" />
      <path
         d="m 60,46.999 c 1.654,0 3,-1.346 3,-3 l -10e-4,-8.585 c 0,-1.179 -0.459,-2.288 -1.292,-3.122 C 61.25,31.836 61,31.23 61,30.585 l -10e-4,-3.586 c 0,-0.552 -0.448,-0.999 -1,-0.999 V 12.815 c 1.161,-0.414 2,-1.514 2,-2.815 0,-1.654 -1.346,-3 -3,-3 h -16 C 41.345,7 40,8.345 40,10 c 0,1.302 0.839,2.401 2,2.815 V 26 c -0.553,0 -1,0.447 -1,1 v 3.586 c 0,0.14 -0.012,0.278 -0.036,0.414 H 36 L 35.999,16.95 C 37.139,16.717 38,15.707 38,14.499 37.999,13.292 37.139,12.283 36,12.05 V 9.484 C 36,7.615 35.272,5.857 33.95,4.534 L 30.708,1.291 C 30.52,1.104 30.265,1 30,1 29.734,1 29.48,1.105 29.292,1.292 l -2,2 c -0.39,0.391 -0.39,1.024 0,1.415 l 3.121,3.122 c 0.372,0.372 0.585,0.887 0.585,1.414 v 2.808 C 29.86,12.283 29,13.292 29,14.499 c 0,0.668 0.259,1.296 0.731,1.768 0.352,0.352 0.791,0.586 1.268,0.682 L 31,31 h -2 v -3 c 0,-0.553 -0.447,-1 -1,-1 h -1 v -3 c 0,-0.553 -0.447,-1 -1,-1 h -4 c -0.553,0 -1,0.447 -1,1 v 3 h -1 c -0.553,0 -1,0.447 -1,1 v 3 h -1 c -1.654,0 -3,1.346 -3,3 v 1.218 l -2,0.499 V 24 C 13,23.734 12.895,23.48 12.708,23.292 12.521,23.104 12.265,23 12,23 H 9 C 8.485,23 8.054,23.392 8.005,23.905 L 6.675,37.866 C 6.265,42.175 4.354,46.233 1.293,49.293 1.007,49.579 0.921,50.009 1.076,50.383 1.23,50.756 1.595,50.999 2,50.999 h 9.999 c 0.553,0 1,-0.447 1,-1 v -1.656 l 6.829,2.049 C 18.115,51.669 17,53.704 17,56 c 0,3.859 3.14,6.999 7,6.999 h 30 c 3.859,0 7,-3.14 7,-7 0,-2.785 -1.64,-5.189 -4,-6.315 V 46.999 Z M 44,16 h 8.999 c 0.552,0 1,0.448 1,1 v 6 H 44 Z M 42.999,9 h 16 c 0.552,0 1,0.449 1,1 0,0.551 -0.448,0.999 -1,0.999 h -16 C 42.448,10.999 42,10.551 42,9.999 42,9.448 42.448,9 42.999,9 Z M 44,24.999 h 10.999 c 0.553,0 1,-0.447 1,-1 v -7 c 0,-1.654 -1.346,-3 -3,-3 H 44 v -1 h 14 v 13 H 44 Z m -2.293,8.708 C 42.541,32.873 43,31.764 43,30.585 V 28 h 16 v 2.586 c 0,1.179 0.459,2.288 1.292,3.122 0.456,0.456 0.707,1.062 0.707,1.707 L 61,43.999 c 0,0.552 -0.449,1 -1,1 H 40.999 v -2 H 57 c 0.552,0 1,-0.447 1,-1 v -4 c 0,-0.553 -0.448,-1 -1,-1 H 40.999 v -1.586 c 0,-0.644 0.251,-1.25 0.708,-1.706 z M 56,39 v 2 H 36 V 39 Z M 35.5,15 h -4 C 31.32,15 31.201,14.908 31.146,14.854 31.091,14.8 31,14.68 31,14.5 31,14.224 31.224,14 31.5,14 h 4 c 0.275,0 0.5,0.225 0.5,0.5 0,0.275 -0.225,0.5 -0.5,0.5 z M 29.414,4 30,3.414 32.535,5.95 C 33.479,6.894 34,8.149 34,9.484 V 12 H 33 V 9.242 C 33,8.173 32.584,7.169 31.829,6.413 Z m 3.585,13 h 1 v 14 h -1 z M 23,25 h 2 v 2 h -2 z m -2,4 h 6 v 2 h -6 z m -4,5 c 0,-0.552 0.448,-1 1,-1 H 39.717 C 39.25,33.711 39,34.543 39,35.414 V 37 h -4 c -0.553,0 -1,0.447 -1,1 v 4 c 0,0.553 0.447,1 1,1 h 4 v 2 H 18 c -0.552,0 -1,-0.448 -1,-1 z m 11,25.999 v 1 h -2 v -1 z m 1.999,0 h 2 v 1 h -2 z m 4,0 h 2 v 1 h -2 z m 4,0 h 2 v 1 h -2 z m 4,0 h 2 v 1 h -2 z m 4,0 h 2 v 1 h -2 z m 4,0 h 2 v 1 h -2 z m 1.001,-2 h -8 -8 -8 -3 c -1.103,0 -2,-0.897 -2,-2 0,-1.103 0.897,-2 2,-2 h 3 8 8 8 3 c 1.103,0 2,0.897 2,2 0,1.102 -0.897,1.999 -2,1.999 H 51 Z M 20.566,53.98 c -0.186,0.316 -0.33,0.656 -0.425,1.019 H 19.1 c 0.13,-0.637 0.384,-1.229 0.732,-1.753 z m -0.425,3.019 c 0.094,0.363 0.238,0.704 0.425,1.019 l -0.734,0.734 C 19.484,58.228 19.23,57.636 19.1,56.999 Z m 37.292,1.019 c 0.186,-0.316 0.33,-0.656 0.425,-1.019 h 1.041 c -0.13,0.637 -0.384,1.229 -0.732,1.753 z M 57.858,55 C 57.764,54.637 57.62,54.296 57.433,53.981 l 0.734,-0.734 c 0.348,0.524 0.602,1.116 0.732,1.753 z M 56.019,52.566 C 55.424,52.215 54.739,52 54,52 H 53.999 V 51 H 54 c 1.017,0 1.962,0.309 2.752,0.833 z M 52,52 h -2 v -1 h 2 z m -4,0 h -2 v -1 h 2 z m -4,0 h -2 v -1 h 2 z m -4,0 h -2 v -1 h 2 z m -4,0 h -2 v -1 h 2 z m -4,0 h -2 v -1 h 2 z m -4,0 h -2 v -1 h 2 z m -4,0 c -0.739,0 -1.424,0.215 -2.019,0.566 L 21.247,51.832 C 22.037,51.308 22.982,51 24,51 Z M 12.999,42.255 v -0.477 l 2,-0.499 v 1.576 z M 15,37.279 v 1.938 l -2,0.499 v -1.938 z m -4,11.72 H 4.233 C 6.729,45.874 8.283,42.062 8.665,38.055 L 9.909,25 H 11 Z m 1.999,-4.656 2.185,0.656 c 0.414,1.161 1.514,2 2.816,2 h 3 v 1.656 l -8.001,-2.4 z m 8.248,15.824 0.734,-0.734 c 0.595,0.351 1.279,0.566 2.019,0.566 v 1 c -1.018,0 -1.963,-0.309 -2.753,-0.832 z m 32.752,0.832 v -1 H 54 c 0.739,0 1.424,-0.215 2.019,-0.566 l 0.734,0.734 c -0.791,0.523 -1.736,0.832 -2.754,0.832 z M 55,49.079 C 54.672,49.032 54.34,49 54,49 H 24 c -0.34,0 -0.672,0.033 -1,0.08 V 47 h 32 z"
         id="path172"
         inkscape:connector-curvature="0" />
      <path
         d="m 51,33.999 h 6 c 0.553,0 1,-0.447 1,-1 v -3 c 0,-0.553 -0.447,-1 -1,-1 h -6 c -0.553,0 -1,0.447 -1,1 v 3 c 0,0.553 0.447,1 1,1 z M 52,31 h 4 v 1 h -4 z"
         id="path174"
         inkscape:connector-curvature="0" />
    </g>
  </g>
</svg>
