<?xml version="1.0" encoding="UTF-8" standalone="no"?>
<!-- Generator: Adobe Illustrator 19.0.0, SVG Export Plug-In . SVG Version: 6.00 Build 0)  -->

<svg
   xmlns:dc="http://purl.org/dc/elements/1.1/"
   xmlns:cc="http://creativecommons.org/ns#"
   xmlns:rdf="http://www.w3.org/1999/02/22-rdf-syntax-ns#"
   xmlns:svg="http://www.w3.org/2000/svg"
   xmlns="http://www.w3.org/2000/svg"
   xmlns:sodipodi="http://sodipodi.sourceforge.net/DTD/sodipodi-0.dtd"
   xmlns:inkscape="http://www.inkscape.org/namespaces/inkscape"
   version="1.1"
   id="Layer_1"
   x="0px"
   y="0px"
   viewBox="0 0 24 24"
   xml:space="preserve"
   sodipodi:docname="warehouse.svg"
   inkscape:version="0.92.3 (2405546, 2018-03-11)"
   width="24"
   height="24"><metadata
   id="metadata81"><rdf:RDF><cc:Work
       rdf:about=""><dc:format>image/svg+xml</dc:format><dc:type
         rdf:resource="http://purl.org/dc/dcmitype/StillImage" /><dc:title></dc:title></cc:Work></rdf:RDF></metadata><defs
   id="defs79" /><sodipodi:namedview
   pagecolor="#ffffff"
   bordercolor="#666666"
   borderopacity="1"
   objecttolerance="10"
   gridtolerance="10"
   guidetolerance="10"
   inkscape:pageopacity="0"
   inkscape:pageshadow="2"
   inkscape:window-width="1299"
   inkscape:window-height="713"
   id="namedview77"
   showgrid="false"
   inkscape:zoom="5.2149125"
   inkscape:cx="-9.0511258"
   inkscape:cy="41.372583"
   inkscape:window-x="67"
   inkscape:window-y="27"
   inkscape:window-maximized="1"
   inkscape:current-layer="Layer_1"
   inkscape:pagecheckerboard="true" />





















<g
   id="g106"
   transform="matrix(0.04373042,0,0,0.04373042,0.80503433,0.80500975)"><polygon
     id="polygon2"
     points="17.351,503.458 17.351,170.311 256.534,8.008 495.716,170.311 495.716,503.458 "
     style="fill:#f07b52" /><polygon
     id="polygon4"
     points="256.534,8.008 17.351,170.311 17.351,503.458 51.52,503.458 51.52,170.311 273.618,19.601 "
     style="fill:#e5563c" /><rect
     height="290.436"
     width="307.51999"
     style="fill:#74757b"
     y="213.022"
     x="102.774"
     id="SVGCleanerId_0" /><g
     id="g8">
	<rect
   height="290.436"
   width="307.51999"
   style="fill:#74757b"
   y="213.022"
   x="102.774"
   id="SVGCleanerId_0_1_" />
</g><rect
     id="rect10"
     height="290.436"
     width="34.168999"
     style="fill:#606268"
     y="213.022"
     x="102.774" /><rect
     id="rect12"
     height="34.168999"
     width="341.689"
     style="fill:#d7d8d9"
     y="178.853"
     x="85.689003" /><rect
     id="rect14"
     height="102.507"
     width="102.507"
     style="fill:#fddd85"
     y="298.444"
     x="102.774" /><rect
     id="rect16"
     height="102.507"
     width="25.627001"
     style="fill:#fdd042"
     y="298.444"
     x="102.774" /><rect
     id="rect18"
     height="51.252998"
     width="34.168999"
     style="fill:#e1a527"
     y="298.444"
     x="136.94299" /><rect
     id="rect20"
     height="102.507"
     width="102.507"
     style="fill:#fddd85"
     y="400.95099"
     x="102.774" /><rect
     id="rect22"
     height="102.507"
     width="25.627001"
     style="fill:#fdd042"
     y="400.95099"
     x="102.774" /><rect
     id="rect24"
     height="51.252998"
     width="34.168999"
     style="fill:#e1a527"
     y="400.95099"
     x="136.94299" /><rect
     id="rect26"
     height="102.507"
     width="102.507"
     style="fill:#fddd85"
     y="400.95099"
     x="205.28101" /><rect
     id="rect28"
     height="102.507"
     width="25.627001"
     style="fill:#fdd042"
     y="400.95099"
     x="205.28101" /><rect
     id="rect30"
     height="51.252998"
     width="34.168999"
     style="fill:#e1a527"
     y="400.95099"
     x="239.44901" /><path
     id="path32"
     d="M 499.946,163.684 260.897,1.382 c -2.713,-1.843 -6.211,-1.842 -8.927,0 L 12.554,163.684 c -2.196,1.491 -3.745,3.972 -3.745,6.627 v 333.147 c 0,4.423 4.119,8.542 8.542,8.542 h 478.365 c 4.424,0 7.474,-4.119 7.474,-8.542 V 170.311 c 10e-4,-2.655 -1.047,-5.136 -3.244,-6.627 z M 93.164,205.548 v -18.152 h 325.673 v 18.152 z m 51.253,101.439 h 18.152 v 35.237 h -18.152 z m -7.474,51.253 h 34.169 c 4.423,0 7.474,-4.119 7.474,-8.542 v -42.711 h 18.152 v 86.49 h -25.627 -34.169 -26.694 v -86.49 H 128.4 v 42.711 c 0,4.422 4.12,8.542 8.543,8.542 z m 7.474,51.253 h 18.152 v 35.237 h -18.152 z m -34.169,0 H 128.4 v 42.711 c 0,4.423 4.119,8.542 8.542,8.542 h 34.169 c 4.423,0 7.474,-4.119 7.474,-8.542 v -42.711 h 18.152 v 86.49 h -86.49 v -86.49 z m 102.507,86.49 v -86.49 h 18.152 v 42.711 c 0,4.423 4.119,8.542 8.542,8.542 h 34.169 c 4.424,0 7.474,-4.119 7.474,-8.542 v -42.711 h 18.152 v 86.49 z m 34.169,-86.49 h 18.152 v 35.237 h -18.152 z m 240.25,86.49 H 417.768 V 324.071 c 0,-4.423 -3.585,-8.008 -8.008,-8.008 -4.424,0 -8.008,3.586 -8.008,8.008 v 171.912 h -86.49 v -95.032 c 0,-4.423 -3.051,-7.474 -7.474,-7.474 h -95.032 v -95.032 c 0,-4.423 -3.052,-7.474 -7.474,-7.474 H 110.25 v -69.406 h 291.504 v 68.338 c 0,4.423 3.585,8.008 8.008,8.008 4.424,0 8.008,-3.586 8.008,-8.008 v -68.338 h 9.61 c 4.424,0 7.474,-4.119 7.474,-8.542 v -34.169 c 0,-4.423 -3.051,-7.474 -7.474,-7.474 H 85.689 c -4.423,0 -8.542,3.052 -8.542,7.474 v 34.169 c 0,4.423 4.119,8.542 8.542,8.542 h 8.542 V 495.984 H 24.826 V 174.555 L 256,17.687 487.174,174.555 Z"
     inkscape:connector-curvature="0" /><path
     id="path34"
     d="m 214.357,76.88 c 0,4.423 3.586,8.008 8.008,8.008 h 68.338 c 4.424,0 8.008,-3.586 8.008,-8.008 0,-4.422 -3.585,-8.008 -8.008,-8.008 h -68.338 c -4.423,0 -8.008,3.585 -8.008,8.008 z"
     inkscape:connector-curvature="0" /><path
     id="path36"
     d="m 290.703,103.041 h -68.338 c -4.423,0 -8.008,3.586 -8.008,8.008 0,4.423 3.586,8.008 8.008,8.008 h 68.338 c 4.424,0 8.008,-3.586 8.008,-8.008 0,-4.423 -3.584,-8.008 -8.008,-8.008 z"
     inkscape:connector-curvature="0" /><path
     id="path38"
     d="m 290.703,137.21 h -68.338 c -4.423,0 -8.008,3.586 -8.008,8.008 0,4.422 3.586,8.008 8.008,8.008 h 68.338 c 4.424,0 8.008,-3.586 8.008,-8.008 0,-4.422 -3.584,-8.008 -8.008,-8.008 z"
     inkscape:connector-curvature="0" /><path
     id="path40"
     d="m 136.943,383.867 h 34.169 c 4.423,0 8.008,-3.586 8.008,-8.008 0,-4.423 -3.586,-8.008 -8.008,-8.008 h -34.169 c -4.423,0 -8.008,3.586 -8.008,8.008 -0.001,4.422 3.585,8.008 8.008,8.008 z"
     inkscape:connector-curvature="0" /><path
     id="path42"
     d="m 171.112,470.357 h -34.169 c -4.423,0 -8.008,3.586 -8.008,8.008 0,4.423 3.586,8.008 8.008,8.008 h 34.169 c 4.423,0 8.008,-3.586 8.008,-8.008 0,-4.423 -3.586,-8.008 -8.008,-8.008 z"
     inkscape:connector-curvature="0" /><path
     id="path44"
     d="m 273.618,470.357 h -34.169 c -4.423,0 -8.008,3.586 -8.008,8.008 0,4.423 3.586,8.008 8.008,8.008 h 34.169 c 4.424,0 8.008,-3.586 8.008,-8.008 0.001,-4.423 -3.584,-8.008 -8.008,-8.008 z"
     inkscape:connector-curvature="0" /></g>
<g
   id="g46"
   transform="translate(0,-488)">
</g>
<g
   id="g48"
   transform="translate(0,-488)">
</g>
<g
   id="g50"
   transform="translate(0,-488)">
</g>
<g
   id="g52"
   transform="translate(0,-488)">
</g>
<g
   id="g54"
   transform="translate(0,-488)">
</g>
<g
   id="g56"
   transform="translate(0,-488)">
</g>
<g
   id="g58"
   transform="translate(0,-488)">
</g>
<g
   id="g60"
   transform="translate(0,-488)">
</g>
<g
   id="g62"
   transform="translate(0,-488)">
</g>
<g
   id="g64"
   transform="translate(0,-488)">
</g>
<g
   id="g66"
   transform="translate(0,-488)">
</g>
<g
   id="g68"
   transform="translate(0,-488)">
</g>
<g
   id="g70"
   transform="translate(0,-488)">
</g>
<g
   id="g72"
   transform="translate(0,-488)">
</g>
<g
   id="g74"
   transform="translate(0,-488)">
</g>
</svg>